# xmcd CD database file
# Copyright (C) 1993-1998 Ti Kan
#
# Track frame offsets:
#     183
#     13718
#     25758
#     37480
#     48680
#     59315
#     76443
#     87558
#     97445
#     110590
#     122303
#     133563
#     145583
#     164173
#     176533
#
# Disc length: 2525 seconds
#
# Revision: 0
# Processed by: cddbd v1.4b41PL1 Copyright (c) Steve Scherf et al.
# Submitted via: Clarion 0.9.5
#
DISCID=d809db0f
DTITLE=Various Artist - Best of country (Vol. 2)
DYEAR=1900
DGENRE=
TTITLE0=Charley PRIDE/I'm so afraid of losing you again
TTITLE1=Wanda JACKSON/Right or wrong
TTITLE2=Conway Twitty/To see an angel cry
TTITLE3=Brenda LEE/That's all you gotta do
TTITLE4=Merle HAGGARD/Some day we'll look back
TTITLE5=Nancy PEPPERS/Love don't come easy
TTITLE6=Charley PRIDE/Shutters and boards
TTITLE7=Patsy CLINE/I'm blue again
TTITLE8=Kenny ROGERS/Ruby (Don't take your love to town)
TTITLE9=Brenda LEE/Silver threads and golden needles
TTITLE10=Don GIBSON/Sea of heart break
TTITLE11=Donna FARGO/Funny face
TTITLE12=Mark MOZINGO/Wind beneath my wings
TTITLE13=Jeannie PRUETT/Satin sheets
TTITLE14=Nancy PEPPERS/Crazy
EXTD=
EXTT0=
EXTT1=
EXTT2=
EXTT3=
EXTT4=
EXTT5=
EXTT6=
EXTT7=
EXTT8=
EXTT9=
EXTT10=
EXTT11=
EXTT12=
EXTT13=
EXTT14=
PLAYORDER=
